<?xml version="1.0" encoding="utf-8"?>
<!-- Generator: Adobe Illustrator 21.1.0, SVG Export Plug-In . SVG Version: 6.00 Build 0)  -->
<svg version="1.1" id="Layer_1" xmlns="http://www.w3.org/2000/svg" xmlns:xlink="http://www.w3.org/1999/xlink" x="0px" y="0px"
	 width="516px" height="178px" viewBox="0 0 516 178" style="enable-background:new 0 0 516 178;" xml:space="preserve">
<style type="text/css">
	.st0{fill:#00539E;}
	.st1{fill:url(#SVGID_1_);}
</style>
<g>
	<path class="st0" d="M104,63.1h-0.8c0-2.2,0-3.6-3-3.6h-3.4l-3.4,15.6c-0.4,2.2-0.2,2,2.2,2.2l-0.2,0.8H87l0.2-0.8
		c2.6-0.4,2.6,0,3.2-2.2l3.4-15.6h-3.6c-2.8,0-3.4,0.8-4.4,3.6H85l1.2-4.6H105L104,63.1z"/>
	<path class="st0" d="M125,66.1c0,10.4-8.8,12.4-11.2,12.4c-2.8,0-9.4-0.2-9.4-8.4c0-7.2,5.6-11.8,12.2-11.8
		C121.4,58.3,125,60.7,125,66.1z M107.8,70.3c0,3.6,1.8,7.4,5.6,7.4c6,0,8.4-6.4,8.4-11.6c0-3.8-1.2-7-5.4-7
		C111,59.1,107.8,64.7,107.8,70.3z"/>
	<path class="st0" d="M131.8,71.3c-0.6,3,0.2,5.4,4.2,5.4c3.6,0,5.6-1.6,6.4-6l2-9.2c0.4-2.2,0.2-2-2.2-2.2l0.2-0.8h7l-0.2,0.8
		c-2.6,0.4-2.6,0-3.2,2.2l-2,9.6c-1.2,5.2-5,7.4-8.6,7.4c-4.6,0-6.6-1.8-6.8-4.6c0-1,0-2,0.2-3.2l2-9.2c0.4-2.2,0.2-2-2.2-2.2
		l0.2-0.8h8.4l-0.2,0.8c-2.6,0.4-2.6,0-3.2,2.2L131.8,71.3z"/>
	<path class="st0" d="M153,61.5c0.4-2.2,0.2-2-2.4-2.2l0.2-0.8h7.8c4.4,0,6.2,2.2,6.2,4.2c0,3.4-3.4,5.4-5.6,6l2.4,4.6
		c1.4,2.6,2.4,3.8,3.4,4.6v0.4h-2.4c-1.6,0-2.2-1-2.6-2l-3.2-7.2h-2.4l-1.4,6.2c-0.4,2.2-0.2,2,2.2,2.2l-0.2,0.8h-8.4l0.2-0.8
		c2.6-0.4,2.6,0,3.2-2.2L153,61.5z M154.4,68.1h2c3.6,0,5.2-3.2,5.2-5.4c0-1.4-0.8-3.2-3.4-3.2h-2L154.4,68.1z"/>
	<path class="st0" d="M171.8,75.3c-0.4,2.2-0.2,2,2.2,2.2l-0.2,0.8h-8.4l0.2-0.8c2.6-0.4,2.6,0,3.2-2.2l3-13.8
		c0.4-2.2,0.2-2-2.2-2.2l0.2-0.8h8.4l-0.2,0.8c-2.6,0.4-2.6,0-3.2,2.2L171.8,75.3z"/>
	<path class="st0" d="M190,62.7h-0.8c0.2-2.6-1.2-3.6-3.2-3.6c-1.8,0-3.6,1-3.6,3.2c0,1.8,1.6,2.8,4.2,5.2c2.6,2.4,2.8,4,2.8,5.6
		c0,2.2-2.6,5.2-7.4,5.2c-2.4,0-4-0.4-5.4-1c0,0-0.2-0.2-0.2-0.4l0.8-4h0.8c-0.4,3.2,1.6,4.4,4,4.4c2,0,4.4-1.4,4.4-3.8
		c0-1.4-1.2-3.2-3.4-5c-2.4-2-3.6-3.6-3.6-5.2c0-3,3.2-5.4,6.4-5.4c1.4,0,3,0.2,4.6,0.6c0.2,0,0.2,0.2,0.2,0.4L190,62.7z"/>
	<path class="st0" d="M193.8,58.5h5.2c1.8,5.2,3.4,10.6,5,15.8l10.8-15.8h5.6l-0.2,0.8h-1c-1,0-2.4,0.6-2.8,2.8l-2.6,13.2
		c-0.4,2.2-0.2,2,2.2,2.2l-0.2,0.8h-8.4l0.2-0.8c2.6-0.4,2.8,0,3.2-2.2l2.6-12.8l0,0l-10.6,15.6H202c-1.4-4.8-3-9.8-4.6-14.6l0,0
		l-2.2,11.4c-0.4,2,0.4,2.2,2.6,2.4l-0.2,0.8h-7l0.2-0.8c2.2,0,2.8-0.4,3.2-2.2l3-13.4c-0.8-2-1.8-2.6-2.6-2.6H194L193.8,58.5z"/>
	<g>
		<path class="st0" d="M249,155.7h-0.8c0.2-2.4-1-3.6-2.8-3.6c-1.6,0-3.2,1-3.2,3c0,1.8,1.4,2.8,3.8,5.2c2.2,2.2,2.6,3.8,2.6,5.6
			c0,2.2-2.2,5.2-6.6,5.2c-2,0-3.6-0.4-4.8-1c0,0-0.2-0.2-0.2-0.4l0.8-4h0.8c-0.4,3,1.4,4.2,3.4,4.2c1.8,0,3.8-1.4,3.8-3.8
			c0-1.4-1-3.2-3-4.8c-2.2-2-3.2-3.6-3.2-5c0-2.8,3-5.2,5.8-5.2c1.2,0,2.8,0.2,4,0.4c0.2,0,0.2,0.2,0.2,0.4L249,155.7z"/>
		<path class="st0" d="M262,167.7c-0.2,0.8-0.2,1.4,0.2,1.4c0.2,0,0.4-0.2,0.8-0.2l1.2-0.6l0.2,0.6l-4.6,2.4
			c-0.4-0.2-0.6-0.6-0.8-0.8c-0.2-0.4,0-0.8,0.4-2.2l0.6-2.4l0,0c-1,1.4-4.8,5.6-7,5.6c-1,0-2-0.6-1.2-3.8l1.8-7.6
			c0.2-0.4,0.4-1.2-0.4-1.2c-0.2,0-0.4,0-0.8,0.2l-1.2,0.4l-0.2-0.6l5-2c0.6,0,0.4,0.6,0.4,1.2l-2.2,9.4c-0.4,1.4,0.2,1.8,0.8,1.8
			c1.4,0,5.4-3.2,6.4-9.8l0.4-2.2h2.4L262,167.7z"/>
		<path class="st0" d="M266.4,160.7l2.2-1l0.8-3.4l2.6-1l-0.8,3.4l2.2-1c1.4-0.6,2.4-0.8,2.8-0.8c2.2,0,2.2,2.8,2.2,3.6
			c0,6.6-5,10.8-10,10.4l-1,4.6c-0.2,0.4-0.2,0.8,0,1.2c0,0.2,0.2,0.4,2.2,0.4l-0.2,0.6h-6.8l0.2-0.6c0.6,0,1,0,1.6-0.2
			c0.4-0.2,0.6-0.6,0.8-1.4l3.2-14.8l-2,1.2L266.4,160.7z M268.8,169.7c0.4,0.2,0.8,0.2,1.4,0.2c2.8,0,5.8-4.4,5.8-9
			c0-1.4-0.6-2.6-1.4-2.6c-1,0-2.4,0.6-3.4,1.2L268.8,169.7z"/>
		<path class="st0" d="M289.6,168.3l-3,1.8c-1.2,0.8-2.4,1.2-3.2,1.2c-2.6,0-3.2-3-3.2-5c0-4.4,4-9.4,8.4-9.4c1.4,0,2.2,0.8,2.2,2.4
			c0,2.6-3.6,5.4-8,4.4c-0.6,2.8,0,5.8,2.4,5.8c1.2,0,2.8-0.8,4-1.8L289.6,168.3z M288.8,158.7c0-0.8-0.4-1.2-1-1.2
			c-2.2,0-4.6,3.4-5,5.4C287.8,163.9,288.8,160.3,288.8,158.7z"/>
		<path class="st0" d="M291.8,170.9l2.4-11c0.2-0.4,0.4-1.2-0.4-1.2c-0.2,0-0.4,0-0.8,0.2l-1.2,0.4l-0.2-0.6l5-2
			c0.6,0,0.4,0.6,0.4,1.2l-1,3.4l0,0c1.8-3.4,3.4-4.6,5.4-4.6l-0.4,2.4l-0.8,0.4c-0.4-0.2-0.6-0.4-1-0.4s-1,0.2-1.4,0.4
			c-1.2,1-2.2,3.8-2.8,6.2l-1,5h-2.2V170.9z"/>
		<path class="st0" d="M301.8,158.7l5-2c0.6,0,0.4,0.6,0.4,1.2l-2.2,9.6c-0.2,0.8-0.2,1.4,0.2,1.4c0.2,0,0.4-0.2,0.8-0.2l1.2-0.6
			l0.2,0.6l-4.6,2.4c-0.4-0.2-0.6-0.6-0.8-0.8c-0.2-0.4,0-0.8,0.2-2.2l1.8-8.2c0.2-0.4,0.4-1.2-0.4-1.2c-0.2,0-0.4,0-0.8,0.2
			l-1.2,0.4L301.8,158.7z M304.8,152.9c0.2-0.8,0.8-1.8,1.8-1.8s1.4,1,1.4,1.8c-0.2,1-0.8,1.8-1.8,1.8
			C305.2,154.7,304.6,153.7,304.8,152.9z"/>
		<path class="st0" d="M309.4,165.7c0-3.6,3-9,7.6-9c3.6,0,4.4,2.4,4.4,5c0,3-2.4,9.4-7.6,9.4C310.4,171.1,309.4,168.3,309.4,165.7z
			 M319,160.5c0-2.8-1.8-3-2.2-3c-3,0-4.8,5.4-4.8,8.8c0,1.4,0.2,4,2.2,4C317.2,170.3,319,165.3,319,160.5z"/>
		<path class="st0" d="M323.2,170.9l2.4-11c0.2-0.4,0.4-1.2-0.4-1.2c-0.2,0-0.4,0-0.8,0.2l-1.2,0.4l-0.2-0.6l5-2
			c0.6,0,0.4,0.6,0.4,1.2l-1,3.4l0,0c1.8-3.4,3.4-4.6,5.4-4.6l-0.4,2.4l-0.8,0.4c-0.4-0.2-0.6-0.4-1-0.4s-1,0.2-1.4,0.4
			c-1.2,1-2.2,3.8-2.8,6.2l-1,5h-2.2V170.9z"/>
		<path class="st0" d="M347.2,150.7l-2.6,11l0,0c0.6-1.2,3.8-5,6.8-5c1.8,0,2.4,2,2.4,3.6c0,6-5.4,10.4-9.6,10.4h-3.8l3.8-17.2
			c0.2-0.4,0.2-0.6,0.2-1c0-0.8-0.6-0.8-1-0.8l-1.4,0.2l0.2-0.8L347.2,150.7z M343,169.5c0.4,0.2,1,0.4,1.6,0.4
			c2.4,0,6.6-2.4,6.6-8.6c0-1-0.2-2.8-1.6-2.8C348,158.5,344,161.9,343,169.5z"/>
		<path class="st0" d="M354,176.5c0-0.6,0.8-1.4,1.8-2.4s1.6-2,2.6-3.2l-0.8-9.2c-0.2-2-0.2-3-1.6-3c-0.4,0-0.6,0.2-1,0.2l-0.2-0.6
			l4.4-1.6c0.4,0,0.4,0.8,0.4,1.2l0.8,10l4-5.6c1-1.6,1-2.8,1-3.2v-1.6c0-0.4,0.2-0.6,0.6-0.6l0.6-0.2c0.4,0,0.4,0.2,0.6,0.4
			l0.6,1.6c0.2,0.6-1.2,2.2-1.6,3l-8,11c-1,1.2-1.6,2.4-1.8,3.4l-0.4,1.2c-0.2,0.4-0.4,0.4-0.8,0.4h-0.6c-0.4,0-0.4-0.4-0.4-0.6
			L354,176.5z"/>
		<path class="st0" d="M377.6,151.7h4.8c2.8,5.2,5.8,10.2,8.8,15.4l0,0l2-12.2c0.4-2.2-0.4-2.4-3-2.4l0.2-0.8h6.8l-0.2,0.8
			c-1,0-2,0.2-2.4,2.4l-3.2,16.2h-1.6c-1.8-3.8-5.2-9.8-8.4-14.8l-2,11.6c-0.4,2,0.4,2.4,2.4,2.4l-0.2,0.8h-6.4l0.2-0.8
			c1.2-0.2,2-0.2,2.6-2.4l2.8-13c-0.8-1.2-1.2-2.4-3.2-2.4L377.6,151.7z"/>
		<path class="st0" d="M407.4,167.7c-0.4,1.2,0,1.6,1,1.2l1.2-0.6l0.2,0.6l-4.6,2.4c-0.4-0.2-0.6-0.6-0.8-0.8
			c-0.2-0.4,0-0.8,0.4-2.2l0.8-3.2l0,0c-2,3.2-5.2,6.2-7,6.2c-1.6,0-1.8-2.2-1.8-3.4c0-5.4,3.6-10.6,10.2-10.6h2.8L407.4,167.7z
			 M404.8,158.3c-4.2,0.2-5.4,6-5.4,8.2c0,1,0,2.6,1.4,2.6c1.2,0,5.2-3.8,6.4-10.8H404.8z"/>
		<path class="st0" d="M420.4,158.3h-3.2l-1.8,8.4c-0.4,2.4,0.4,2.8,1.2,2.8c0.8,0,2-0.4,2.8-0.6l0.2,0.8l-5.4,1.6
			c-1,0-1.8-1.2-1.4-3l2.2-9.8h-2.4l0.2-1.2h2.4l0.6-2.8c0.8-0.4,1.4-1,2-1.6h0.8l-1,4.2h4l-0.2,0.6L420.4,158.3z"/>
		<path class="st0" d="M432,167.7c-0.2,0.8-0.2,1.4,0.2,1.4c0.2,0,0.4-0.2,0.8-0.2l1.2-0.6l0.2,0.6l-4.6,2.4
			c-0.4-0.2-0.6-0.6-0.8-0.8c-0.2-0.4,0-0.8,0.4-2.2l0.6-2.4l0,0c-1,1.4-4.8,5.6-7,5.6c-1,0-2-0.6-1.2-3.8l1.8-7.6
			c0.2-0.4,0.4-1.2-0.4-1.2c-0.2,0-0.4,0-0.8,0.2l-1.2,0.4l-0.2-0.6l5-2c0.6,0,0.4,0.6,0.4,1.2l-2.2,9.4c-0.4,1.4,0.2,1.8,0.8,1.8
			c1.4,0,5.4-3.2,6.4-9.8l0.4-2.2h2.4L432,167.7z"/>
		<path class="st0" d="M436,170.9l2.4-11c0.2-0.4,0.4-1.2-0.4-1.2c-0.2,0-0.4,0-0.8,0.2l-1.2,0.4l-0.2-0.6l5-2
			c0.6,0,0.4,0.6,0.4,1.2l-1,3.4l0,0c1.8-3.4,3.4-4.6,5.4-4.6l-0.4,2.4l-0.8,0.4c-0.4-0.2-0.6-0.4-1-0.4s-1,0.2-1.4,0.4
			c-1.2,1-2.2,3.8-2.8,6.2l-1,5H436V170.9z"/>
		<path class="st0" d="M454.8,168.3l-3,1.8c-1.2,0.8-2.4,1.2-3.2,1.2c-2.6,0-3.2-3-3.2-5c0-4.4,4-9.4,8.4-9.4c1.4,0,2.2,0.8,2.2,2.4
			c0,2.6-3.6,5.4-8,4.4c-0.6,2.8,0,5.8,2.4,5.8c1.2,0,2.8-0.8,4-1.8L454.8,168.3z M454.2,158.7c0-0.8-0.4-1.2-1-1.2
			c-2.2,0-4.6,3.4-5,5.4C453,163.9,454.2,160.3,454.2,158.7z"/>
		<path class="st0" d="M460.2,167.7c1,0,1.4,0.8,1.4,1.4c0,1.2-0.8,2-2,2s-1.6-1-1.6-1.6C458,168.5,459,167.7,460.2,167.7z"/>
	</g>
	
		<linearGradient id="SVGID_1_" gradientUnits="userSpaceOnUse" x1="321.2359" y1="38.3701" x2="438.7397" y2="200.0979" gradientTransform="matrix(1 0 0 -1 0 178)">
		<stop  offset="0" style="stop-color:#BF311A"/>
		<stop  offset="8.113506e-02" style="stop-color:#C64717"/>
		<stop  offset="0.2507" style="stop-color:#DA810F"/>
		<stop  offset="0.4926" style="stop-color:#F8DC03"/>
		<stop  offset="0.5449" style="stop-color:#FFF100"/>
		<stop  offset="0.736" style="stop-color:#2CA243"/>
		<stop  offset="0.8652" style="stop-color:#007CB6"/>
		<stop  offset="1" style="stop-color:#00529B"/>
	</linearGradient>
	<path class="st1" d="M371.8,68.3c-0.2-0.2-0.6-0.2-0.8-0.4c-0.2-0.4,0.2-0.6,0.4-0.6c0.2,0,0.6,0.2,1,0.2c0,0.2,0,0.4,0,0.6
		c0.4-0.2,0.6-0.2,1-0.6c0,0,0.2,0,0.4,0c0.4-0.4,0.8-0.8,1.2-1c0.2,0,0.2-0.6,1.4-1.2c0.2-0.2,0.8-0.6,0.8-0.6
		c1.2-0.8,2.2-1.8,3.6-2.2c0.6-0.2,1-1.4,1.6-1.6c0.8-0.4,1.6-0.6,2.2-1.2c0.4-0.4,0-1.4,0.4-1.6c0.8-0.4,1.2-1.2,2.2-1.4
		c0.6,0,0.8,0.6,0.8,1c0.2,0,0.6-0.2,0.6-0.6c0.2-0.2-0.2-0.4-0.2-0.6c0.2-1,1-1.6,2-1.6c0-0.2,0.4-0.2,0.2-0.4c0.8,0,1-0.8,1.6-1.4
		c0.8-1,2.4-0.8,3.6-1.2c0.6-0.2,1-0.8,1.4-1.2c0,0-0.2-0.4,0-0.6c0.4-0.6,1.4-0.6,2-0.8c0.4,0,0.4-0.6,0.8-0.8
		c1.2-0.6,1.6-1.2,2.4-1.4c0.6-0.2,0.8-0.6,1.2-0.8c0.4-0.2,1.4,0,1.4-0.6c-0.2-1,1.6-0.8,1.8-1.8c0,0,0.8,0.2,1-0.4
		c0.2-0.4,0.8,0,1.2-0.2c0.2,0,0.6,0,1-0.2c0.2-0.2,0.6,0,1,0c0.8-0.6,1.8-0.6,2.6-1c0.2-0.2,0-0.6,0.2-0.8c0.6-0.8,2.6-0.2,2.4-1.2
		c-0.8-1,0.6-1.6,1.2-1.4c0.4,0.2,1.2,0.2,1.6,0s0.8-0.6,0.8-1.4c0,0,0.2-0.2,0.4-0.2c0.6,0,1-0.2,1.4-0.4c0.2-0.2,0.2,0.4,0.6,0.4
		c0.6,0,1.2-0.6,1.4-1.2c0.2-0.2,0.6-0.2,1-0.4c0.8-0.6,0.6,0,1.2-0.2c0.8-0.4,1.4-1,2.4-1.2c0.6-0.2,0.6-1,1.6-0.4
		c0.6,0.2,1-0.6,1.4-1c0.2,0,0.2-0.4,0.4-0.4c0.2,0,0.6,0.2,0.8,0c0.6-0.2,0.4-1.2,1-1.4c0.8-0.2,1.6,0,2.4-0.2
		c0.6-0.2,0.8-0.2,1.2-0.4c0.6-0.2,0.8-1.2,1.4-1.4c0.4-0.2,0.4-0.4,0.8-0.6c0.6-0.6,1.4,0.2,2.2,0.2c1-0.2,0-0.4,0-0.6
		c0-0.6,0.6-1.2,1-0.8c0.6,0.4,1.2-0.4,1.6-0.4c0.6,0.2,1.2,0.2,1.6-0.4c0,0,0.2,0,0.4,0c0-0.2,0-0.6,0.2-0.8c1.8-0.8,2.2-0.2,2.2,0
		c0.8,0.4,0.6-1,1-1c0.2,0,0.4,0.4,0.6,0.4c0.6,0.2,0.8-0.4,1.4-0.6c0.8-0.4,1.4,0.6,2.2,0.2c0.4-0.2,0.2-1.6,1-1.4
		c0.6,0,0.8-0.2,1.2-0.2c0.6,0,1.4-0.6,1.8-1c0.4,0.2,0.8,0.2,1,0c0.2,0,0.6-0.2,0.6-0.6l-0.2-0.2c0.6-0.6,1.6-0.2,2-0.2
		c0.6,0,1.4-0.6,2.4-0.6c0.2,0,0.2-0.6,0.2-0.8c1-0.2,2-0.4,3-0.6c0.2,0,0.4,0.4,0.6,0.4c0.4-0.2,0.8-0.6,1-0.6
		c0.4-0.2,1-0.2,1.6-0.2c0-0.2,0.2-0.6,0.2-0.6c1.2-0.8,2.4,0.2,3.6-0.2c2.2-0.8,4.4-1,6.4-2.2c0.4-0.2,1,0.4,1.2,0
		c0,0,0.2-0.2,0.2-0.4c0.4,0,1,0.2,1.2,0.2c0.8-0.4,1.4-0.2,2.4-0.6c-1-0.8-2.4,0.4-3-0.8c-1,0.2-1.4,0.8-2.4,1
		c-0.2,0-0.4,0.2-0.6,0.2c-1.6-0.2-3.2,0.2-4.8,0.8c-0.4,0.2-1.2,0-1.6,0.2c-0.2,0-0.2,0.4-0.6,0.6c-1.4,0.4-2.8,0-4.2,0.6
		c-0.4,0.2-1,0.2-1.4,0.6c-0.6,0.6-1.8-0.4-2.4,0.2s-1.2,0.8-2,1c-0.4,0.2-1.2-0.4-1.6-0.2c-0.2,0-0.4,0.2-0.6,0.2
		c-1.8,0.2-3.4,1.2-5.4,1.4c0.2,0.2,0,0.8-2.4,0.6c0.2,0.4-0.4,0.6-0.6,0.6c-1.8,0-3.4,0.6-5.4,1c-1.2,0.2-2.2,1-3.4,1.4
		c-3.6,1.2-6.8,2.8-10.6,3.6c-0.2,0-0.8-0.4-2.2,0.8c-0.2,0.2-0.8-0.2-1.2,0c-1.2,0.8-2.4,1.2-3.6,2c0-0.2-0.2-0.2-0.2-0.4
		c-0.8,0.8-2,1.2-3,1.8l-0.4-0.2c-1.6,0.6-4,1-4.6,2s-1.6,1.2-2.6,1c-1.4,1-3.2,1.8-5,2.2c-0.4,0.2-0.8,0.8-1.2,0.8
		c-1.2,0-1.4,0.6-1.6,0.8c-2.4,0.8-4.2,2.4-6.4,3.6c-0.6,0.2-1,0.6-1.6,0.8c-0.4,0.2-0.8,0.8-1.4,1c-0.8,0.4-1.8,0.6-2.6,1.2
		c-2.8,1.8-5.2,3-8,4.8c-0.4,0.4-0.8,0.8-1.2,1.2c-0.8,0.6-1.8,1-2.6,1.6c-0.8,0.4-1.4,1.4-2.2,2c-0.2,0.2-0.6,0-0.8,0.2
		c-0.6,1.2-1,0.6-1.6,1c-1.8,1.2-3.4,2.2-5,3.8c-0.6,0.6-1.2,1-2,1.6c-0.8,0.8-1.2,1.8-2.2,2.4c-0.6,0.4-1.6,0.6-2.2,1.2
		c-1.2,1.2-2.2,2.4-3.4,3.4l-1.4,1c-0.6,0.4-0.8,0.8-1,1.4c0-0.2-1.2,0.6-1.4,1.2c-0.2,0.6-0.8,1-1.2,1.2c-0.2,0.2-0.4,0.4-0.8,0.4
		c0,0.2,0,0.4,0,0.4c-0.8,0.8-1.6,1.2-2.2,2.2c0,0-0.2,0.4,0,0.4c-1.4,1.2-2,2.8-4.4,4.8c-0.2,0.2-0.2,0.6-0.4,0.8
		c-0.8,0.8-1.4,1.6-2.4,2.4c-0.2,0,0,0.4,0,0.6s-0.4,0.2-0.4,0.4c-0.4,0.6-3,3-3.4,3.8c-0.2,0.2-0.4,0.6-0.4,1.2h-0.2
		c-0.2,0.6-0.4,1-1,1c0,0.2-0.2,0.2-0.2,0.4c-0.2,0.2-0.4,0.4-0.6,0.4c-0.2,0.2,0,0.6-0.2,0.8c-0.8,0.8-1.6,1.2-2.2,2
		c-0.4,0.6-1.2,1-1.4,1.6c0,0.2-0.2,0.6-0.2,0.8c-0.6,0.8-1.2,1.6-2.2,2c0,0-0.2,0.4-0.2,0.6c-0.4,0.6-0.8,1-1,1.6
		c0,0.2-0.4,0.6-0.8,0.6c0.2-0.8,0.2-1.8,0.6-2.4c0.2-0.4,0.4-0.8,0.6-1.2c0.2-0.4,0.2-0.8,0.4-1.2c0.2-0.4,0.6-0.8,0.6-1
		c-0.2-0.8,0.4-1.2,0.6-2c0.2-0.6,1-1,1.2-1.6c0.2-0.4-0.2-0.8-0.2-1.2c0-0.4,0.4-0.8,0.8-1c0.4-0.4,0.6-1,0.8-1.6c0,0,0,0-0.2,0
		c0-0.6,0.2-1,0.4-1.4c0-0.2,0.2-0.4,0.4-0.2c0-0.6,0.4-2.2,1.2-2.2c0.2-1.2,0.4-2.6,1.4-3.6c-0.2-0.2-0.4-0.6-0.4-0.6
		c0-0.8,1-1.4,1.2-2.2c0.2-1.2,0.8-2.2,1.2-3.4c0.2,0,0.4-0.2,0.4-0.2c0.2-0.6-0.2-1.2,0-1.6s0.8-0.4,1-0.6c0.2-1,0.8-2,1.2-2.8
		c0.2-0.2,0-0.8,0.2-1l0.2-0.4c0.2-0.4,0-1,0.4-1.4c0,0-25.6-1.2-31.8-1.2c-3.8,0-5.8,1.4-6.4,2s-1.2,0.6-1.4,0
		c-1.2-9.8,10.4-8.4,13.4-8.2l13,0.8l3-6.2l-6.8-0.4c1.6-2.6,2-3.4,9.8-3.2s16.4,0.2,16.4,0.2c0.8-0.8,1.6-1.8,2-2.8
		c0.2-0.6,0.2-1.6,0.8-2.2c0.6-0.4,0.6-1.4,1-2.2c0.2-0.2,0-0.4,0.2-0.6c0.4-0.4,1-0.8,1.2-1.2c0-0.2,0-0.6,0-0.8s0.2-0.4,0.6-0.4
		c0.2,0,0.4-0.4,0.4-0.8c0-0.6-0.2-0.8,0.2-1.4c0.2-0.4,0.6-0.8,1-1.2s0-1,0.6-1.6s0.4-1.6,0.8-2.4c0.2-0.4,0.6-0.6,1-0.8
		c0.8-0.4-0.2-1.4,0.2-1.8c0.2-0.4,1-0.4,1.2-0.8s0.6-0.8,0.8-1.2c0.4-0.6,0.2-1.2,0.6-1.8c0.2-0.2-0.2-0.4,0-0.8
		c0.6-0.8,1.2-1.2,1.4-2c0.2-0.4-0.2-0.8-0.2-1c0-0.4,0.6-0.6,1-1s0.4-1,1-1.2c-0.4-0.6,0-1,0.4-1.4c0.2-0.2-0.2-0.2-0.2-0.4
		c0.2-0.6,1-1.2,1.4-1.6c0.6-0.4,0.6-1.4,1-2c0-0.2,0-0.4,0-0.6c0.4,0,0.4-0.4,0.4-0.6c0.2-0.2,0-0.6,0.2-0.8c0.4,0,0.6-0.4,1-0.2
		c0-0.4,0.4-0.6,0.6-1c0-0.4-0.4-0.8,0-1.2c0.4-0.6,0.8-0.4,1.4-0.8c0.4-0.2-0.2-0.4-0.2-0.8c0.2-0.6,0.6-1.2,1.2-1.8
		c0.2-0.2-0.4-0.4-0.2-0.6c0.4-0.4,1-0.6,1.4-0.8c0.6-0.2-0.2-1.2,0.2-1.8c0.2-0.2,0.4-0.8,0.8-0.6c0.2-0.8,0.2-1.6,0.6-2.4
		c0.2-0.4,0.6-0.4,0.8-0.8c0.4-1.2-1.8-1-1.2,0c0.2,0,0.2,0.4,0.2,0.6c1.6,0.2,1,0.2,0.8,0.8c-0.2,0.6-0.2,1-0.2,1.6
		c0,0-0.4,0.8-1,1v0.4c-0.6,0.6-1.2,1.2-1.2,2c0,0.2-0.4,0-0.4,0.4c0,0.2,0,0.4,0,0.4c-1,0.8-1.8,1.8-2.4,2.8
		c-0.6,1.2-1.2,2.6-2.6,3.4c0,1.4-1.6,1.6-2,2.8c-0.4,1.4-0.6,3-1.8,4c-0.4,0.4-0.8,0.8-1.2,1.2c-0.6,0.6-0.8,1.4-1.4,2.2
		c-0.2,0.4-1.2,1-1.2,1.8s-1.4,1-1.6,1.6c-0.2,1.2-1.4,2-1.4,3c0,0.6-0.8,1-0.8,2c0,0.2-0.4,0.2-0.4,0.6c-0.8,0-1.2,0.2-1.4,0.4
		c0,0-0.8-0.2-0.6,0.4c0.2,0.8,0,1.4,0,1.4c0,0.6-0.6,0-1,0.6c-0.4,0.4-0.6,0.4-0.8,0.8c-0.2,0.4,0.2,0.8,0.4,1.2c0.2,0.4,0.2,1,0,1
		c-0.8,0.2-1.6,0-2.4,0.2c-0.4,0,0,0.8-0.2,1c-0.8,0.6-1.2,1.4-1,2.2c0,0.6-0.6,0.4-1.2,0.4c0,0.8-0.6,1.4-1.2,1.8
		c0,0-11.2,0-13.4,0c-7.8,0-12.4,2.4-14.6,8.8c-1.2,0-6.2-0.2-8.8-0.2c-9.6,0-13.2,7.6-12.6,14.4c0.2,4,2,8,4.8,9.8
		c2.2-8.2,13-6.2,30.8-5.2c0.2,0,0.4,0,0.4,0c0.2,0.6-0.4,1-1,1.4c-0.2,0.2-0.4,0.4-0.4,0.6c0,0.8-0.2,1.4-0.6,2
		c-0.2,0.4-0.8,0.4-0.8,1c0.2,0,0.6-0.2,0.8-0.4c0.2,0.4,1,0.2,0.8,0.8c-0.2,0.4-0.4,0.8-0.6,1c-0.4,0.2-1,0-1.2,0.2
		c-0.4,0.6-1,1.2-0.4,1.8c-0.6,0.4-0.2,1-0.6,1.4c0,0.2,0,0.4,0.2,0.4c-0.8,0.8-0.8,1.8-1.2,2.8c-0.2,0.2-0.6,0.8-0.6,0.6
		c0,0.2,0,0.2-0.2,0.4c0.4,0,0.8-0.4,1.2,0c0.6,0.6,0,1.6-0.2,2.4c0,0.2-0.8,0-0.8,0.4c-0.2,0.4-0.2,0.8-0.2,1.2
		c0,0.2-0.4,0-0.6,0.2c-0.6,0.4-0.6,1-0.8,1.6c-0.2,1.4-0.6,2.8-1.2,4.2c-0.2,0.6-0.6,1-0.8,1.8c0,0.2,0.2,0.4,0.2,0.6
		c-0.2,1.2-1.4,2-1.4,3.2c-0.2-0.2-0.2,0.2-0.4,0.2c-0.2,0.6,0.4,0.8,0.4,1.2c0,0.2-0.2,0.4-0.2,0.8c-0.4,0-0.8-0.2-1-0.2
		c-0.6,0-0.4,0.8,0,1.2c0.2,0.4,0,1-0.4,1.6c-0.4,0.4-0.4,1.2-1,1.4c0.2,0.4,0,0.8,0,1.2c0,0.2-0.2,0.2-0.4,0.4
		c-0.2,0.6,0.6,0.2,0.6,0.6s-0.2,1-0.6,1.2c-0.2,0.2-0.6,0.2-0.6,0.4c-0.2,1.2-0.2,2.6-0.6,3.8c0,0-0.4,0-0.4,0.2
		c-0.2,2.8-1.8,6-2.2,6.8c-0.2,0.4-0.2,0.8-0.2,1.2c-0.2,1.2-1,2.4-1.2,3.4c-0.2,0.6-0.8,1.2-1,1.8s0.4,1.2,0.2,2
		c-0.2,0.4,0.2,0.8,0.8,0.8c-0.4-0.4-0.4-1.2-0.4-1.6c0-0.4,0-0.8,0.2-1c0.2-0.4-0.2-0.8,0.2-1.2c0.4-0.4,0.8-0.2,1.2,0
		c0.4,0.2,0.2,0.8,0.4,1c0.2,0.8,0.4,1.6,0.2,2.4c0,0.4-0.8,0.2-1,0.4c-0.4,0-0.4,0.6-0.8,0.8c-0.2,0.2-0.2,0.4-0.2,0.8
		c0,0.4,0.6,0.2,0.6,0.4c0,0.8,0.2,1.6,0.8,1.4c0.4-0.2,1.2-0.6,1.2-1.2c0-0.2,0.4,0,0.4-0.2c0.2-0.6-0.6-0.4-0.8-0.8
		c-0.2-0.6,0-1.2,0.4-1.4s0.8-0.4,1-0.6c0.2-0.4,0.2-0.8,0.4-1.2c0.2-0.4,0.4-0.8,0.8-1.2c0.2-0.2,0.6-0.4,0.8-0.8
		c0.2-0.6-0.2-1.2,0.2-1.4c0.4-0.6,1-1.2,1.2-2c0.4-0.8,0.8-2,1.8-2.8c1-0.6,0.8-2,1.8-2.6c-0.2-1.2,0.6-2,0.8-3.2
		c0-0.2,0-0.6,0-0.8c0.2-0.4,0.6-0.4,0.8-0.6c0.2-0.6-0.4-1-0.6-1.4c0-0.2,0-0.4,0-0.4c0.6-0.4,0.8-1,1.4-1.2c0.4-0.2,1,0,1.4-0.4
		c0.4-0.2,0.2-1,0.8-1.2c0.4-0.2,0-1,0.2-1.4c0.6-1,1.2-2,2.2-2.8c0.2-0.2,0.2-0.4,0.2-0.6c0.4-0.6,1-0.8,1.4-1.4
		c0.2-0.2,0.6-0.4,0.6-0.8s0.6-0.6,0.8-1c0.6-0.6,0.6-1.6,1.4-2.2c0.4-0.2,0.6,0,1-0.2c0-0.2-0.2-0.4-0.2-0.6c-0.2,0-0.4,0-0.4,0
		c-0.2-0.2-0.2-0.6,0-0.8c0-0.2,0.4-0.2,0.4-0.2c0.4-0.4,0.2-1.2,0.8-1.4c0.4-0.2,0.8,0,1.2-0.2c0.2-0.2,0.4-0.2,0.4-0.4
		c0.4-0.6,0-1.8,0.8-2c1-0.2,1.2-1,1.6-1.8c0.2-0.6,1.4-0.4,1.8-1s0-1.4,0.4-1.8s1-1,1.6-1.4s0.8-1.4,1.2-2.2
		c0.2-0.6,0.8-0.2,1.2,0.2c0-0.2,0.2-0.2,0.2-0.4c0-0.4,0.6-0.4,0.8-0.6c0.4-0.6,0.2-1.2,0.6-1.6c0.6-0.6,1.2-1.2,2-1.8
		c0.2,0,0-0.8,0.6-0.4c0.2,0.2,0.8-0.8,1.2-1.2c0.8-0.6,1.2-1.6,1.6-2.6c0.2-0.4,0.6-0.8,1-1.2c0.2,0,0-0.6,0.4-0.8
		c0.6-0.2,1-0.4,1.6-0.6c0.4-0.4,0.8-0.4,1.2-0.8c0.2-0.2,0.6-0.4,0.6-0.8c0.4,0,0.8,0,0.8-0.2c0.4-0.6,0.8-1.2,1-1.8
		c0.2-0.6,1-0.8,1.6-1.2c0.6-0.4-0.2-1,0-1.6c0.2-0.2,0.6-0.4,1-0.4c0,0.2,0.2,0.2,0.2,0.4C371.6,69.3,371.8,68.9,371.8,68.3
		L371.8,68.3z M334.2,92.9c0.8,0.2,0,0.2,0,0.8c0.2,0.6-1,1.2-1,1.6s0.2,0.6-0.6,1c-0.8,0.2-0.4-0.2-0.6-0.8
		c-0.2-0.6,0.4-0.6,0.4-0.6l-0.2-0.2c0.6-0.8,0.2-1.4,0.4-2c0.2-0.6,0.8-0.2,1-0.2C334.2,92.5,334.2,92.9,334.2,92.9z M337.2,83.5
		c-0.6,0.2-0.2-0.2-0.4-0.6c-0.2-0.2,0-0.6,0.2-0.6C337.2,82.5,337.6,83.3,337.2,83.5z M338,82.1c-0.6,0.2-1-0.2-1-0.2
		c0.4-0.2,0.2-0.6,0.2-0.8c0-0.2,0.2-0.2,0.6-0.2c0.2,0.2,0.8-0.2,1,0C339,81.1,338.6,81.9,338,82.1z M332.8,105.3
		c0,0.4-0.6,0.6-1,0.6s-0.8-0.4-0.4-0.8c0.2-0.4,1-0.6,1-0.6C332.2,104.7,332.8,104.9,332.8,105.3z M340.2,102.9c-0.2,0-1,0-0.8-0.6
		s0.6-0.4,0.8-0.4C341,102.3,340.4,102.9,340.2,102.9z M327.2,116.3c0.2,0.2,0,0.6-0.6,0.6c-0.4,0-1-0.2-1-0.4
		c0-0.4,0.2-0.8,0.6-0.8C327,115.7,327.2,116.1,327.2,116.3z M325,124.5c-0.2,0-0.6,0-0.6,0.4c0,0.2,0.2,0.4,0.6,0.4
		C325.2,124.9,325.4,124.5,325,124.5z M325,128.1c-0.6,0.2-0.6-0.2-0.4-0.4c0-0.2,0.6-0.6,0.6-0.4
		C325.2,127.5,325.4,127.9,325,128.1z M324,128.3c-0.2,0.6-0.6,1-1.2,1c-0.6-0.2-0.4-0.6-0.2-0.8c0.2-0.2-0.4-0.4-0.4-0.8
		c0-0.2,0.4-0.4,0.8-0.4C324,127.3,324.2,127.7,324,128.3z M346.8,91.7c-0.2,0.2-0.6,0.4-0.8,0.2c-0.4-0.2-0.2-0.6,0.2-1
		c0.4-0.4,1-0.4,1-0.2C347.4,91.5,347,91.5,346.8,91.7z M350,88.9c0.4-0.2,1.2,0.4,0.6,0.8c-0.8,0.6-0.2,1.2-0.8,1.4
		c-0.4,0.2-0.4,0.4-1,0.8s-0.6,0-1-0.6c-0.2-0.4,0-0.8,0.4-1C349.4,89.9,349,89.1,350,88.9z M352.8,87.1c0.2,0.4-0.4,1-0.8,1
		c-0.4,0.2-1-0.2-1-0.8c0-0.6,0.4-0.6,1-0.8C352,86.7,352.4,86.9,352.8,87.1z M354.4,84.7c-0.4,0.4-1,0-1-0.4s0.4-0.4,0.8-0.6
		C354.8,83.5,354.8,84.5,354.4,84.7z M357.6,81.1c0.4,0.2,0.4,1,0.2,1c-0.4,0-0.6,0.8-1.2,0.8s-0.4-1,0-1.2
		C356.8,81.5,356.8,80.7,357.6,81.1z M357,80.1c-0.4,0.2-0.8,0-0.8-0.4s0.4-0.4,0.8-0.4C357.6,79.5,357.4,80.1,357,80.1z
		 M339.8,76.7c0.4,0,0.8,0,1.2,0.4c0.4,0.4-0.2,0.2-0.2,0.6c-0.2,0.4-0.4,0.2-0.8-0.2c-0.2-0.4-0.4,0-0.4,0c-0.6,0-0.4-0.4-0.4-0.4
		c-0.6-0.6,0-1,0.4-1C340,76.3,339.8,76.7,339.8,76.7z M359.2,76.9c0.4,0.2,0.2,0.8,0.4,1.2s0.6,0.8,0.2,1s-0.2,1.2-1,1.6
		c-0.6,0.4-0.8-1-0.8-1c0.6-0.6,0.4-0.8-0.4-1c-0.6-0.2-0.2-1.4-0.2-1.6c0-0.4,1-0.2,1-0.2C358.4,76.7,358.8,76.7,359.2,76.9z
		 M362,75.5c0.8,0.2,1,0.8,0.4,1s-1,0.6-1.2,1s-1,0.2-1-0.6c0-0.8,0-0.6,0.4-0.6c0.6-0.2,0-0.4-0.4-0.6c-0.4-0.4-0.2-0.8,0.2-1
		C361.8,74.3,362,75.5,362,75.5z M364,72.9c0.2,0,0.8,0,0.8,0.4c-0.2,0.6,0.2,1.2-0.6,1.4c-0.8,0-0.4,0.4-1,1
		c-0.6,0.4-0.6-0.6-0.6-0.6c-0.2,0-0.6-0.2-0.4-1s1-0.2,1.2-0.6C363.4,72.9,363.8,72.9,364,72.9z M367.4,72.7
		c-0.6,0.2-0.2,0.6-0.4,0.8c-0.2,0.2-0.4,0-1-0.4c-0.4-0.4,0-0.6,0.4-0.6c0.2,0,0.6-0.4,0.8-0.4C367.4,72.3,367.8,72.5,367.4,72.7z
		 M381.8,60.9c0,0.6-0.2,0.2-0.6,0.6c-0.2,0.2-0.4,0-0.6-0.2c0-0.2,0.2-0.4,0.4-0.4C381.4,60.7,381.8,60.5,381.8,60.9z M383.2,59.1
		c0.6-0.2,0.6,0,0.8,0.2c0,0.4-0.4,0.4-0.4,0.4c0-0.2-0.4-0.2-0.6-0.2c-0.4,0-0.6-0.4-0.2-0.6C383,58.7,382.8,59.1,383.2,59.1z"/>
	<path class="st0" d="M30.8,133.5H7.2c-0.8,0-1.4-0.6-1-1.2l1.4-2.6c0.2-0.4,0.4-1,1-1c4,0,4.4-4.2,4.4-4.2l6-40.6
		c-16-0.8-14.6,8-14.6,8H0l2.6-16.2c23.4,3,51.6,0.2,51.6,0.2l-2.4,16.2h-4.4c0,0,3.4-8.8-12-8.2l-6,39.2c0,0-1.4,6,5.8,5.8l-1,4.4
		h-3.4V133.5z"/>
	<g>
		<path class="st0" d="M76.8,75.3l-4.4,26l0.2,0.2c1-2.6,7.2-9.8,14.6-9.8c6.2,0,11.2,5,9.6,14.6l-2.4,13.6c-0.4,3-0.2,4,1.8,3.8
			c1.8-0.4,2.8-0.4,2.8,0.6l0.2,3c0,0.6-0.6,1-1.8,1.4L82,134.5c-3.2,0-4.4-2.2-4-4.4l3.2-19.8c1-5.6,0.4-9.2-1.8-9.2
			c-2,0-4.4,3.4-5.4,5.4c-1.2,2.4-3.6,7.8-4.6,13.8l-2.8,14l-14.8,1.2l8.4-49.6c1-6.2,0.6-6.2-0.8-7l-3-0.8l1.2-4
			c8.2,0.6,20.6-3.2,20.6-3.2c-0.6,1-1.2,3.8-1.2,3.8"/>
	</g>
	<path class="st0" d="M102.2,99.7l0.4-4.6c11.8,1.8,21.6-2.6,21.6-2.6l-0.4,1.8l-4.2,21.4c-1,5,1.4,6.2,2.4,6.2
		c2.4,0,6.8-5.6,8.8-15l1.2-11.6l15-1.8l-4.2,26.4c-0.4,3-0.2,4,1.8,3.8c1.8-0.4,2.8-0.4,2.8,0.6l0.2,3c0,0.6-0.6,1-1.8,1.4
		l-15.4,5.6c-3.2,0-4.4-2.2-4-4.4l1.2-6.4l-0.2-0.2c-2.6,5.2-8.8,11-15.2,11c-4,0-10.6-2.8-8-15.8l3-13.6c1-6.2,0.4-4.6-1.2-5.4
		L102.2,99.7z"/>
	<path class="st0" d="M150.6,98.1l0.6-3.4c6,0.6,21.6-2.6,21.6-2.6l-0.6,2.2l-1.2,7l0.2,0.2c1-2.6,7.2-9.8,14.6-9.8
		c6.2,0,11.2,5,9.6,14.6l-2.4,13.6c-0.4,3-0.2,4,1.8,3.8c1.8-0.4,2.8-0.4,2.8,0.6l0.2,3c0,0.6-0.6,1-1.8,1.4l-15.4,5.6
		c-3.2,0-4.4-2.2-4-4.4l3.2-19.8c1-5.6,0.4-9.2-1.8-9.2c-2,0-4.4,3.4-5.4,5.4c-1.2,2.4-3.6,7.8-4.6,13.8l-2.2,13.4l-15.4,1.8
		l5.2-30.4c1-6.2,0.4-5.8-1.2-6.6L150.6,98.1z"/>
	<path class="st0" d="M226,78.7l1.6-3.4c6.2,1,22.2-2.8,22.2-2.8c-1,0.6-1.4,3.8-1.4,3.8l-7,43.6c-0.4,3-0.4,4,1.8,3.8
		c2-0.4,2.8-0.4,2.8,0.4l0.4,3.2c0,0.8-1,1.2-2,1.6l-15.2,5.6c-3.2,0-4.4-2.2-4-4.4l1.4-7l-0.2-0.2c-2.6,5.6-8.8,11.6-13.6,11.6
		s-11.8-4.4-11.8-15c0-18.6,18.8-27.6,28.4-27.6c0.6,0,1.2,0,2,0l1-6c1-6.2,0.4-5.8-1.2-6.6C228.6,77.9,226,78.7,226,78.7z
		 M229.2,103.9c0-3.2-1-6.2-3.6-6.2c-1.8,0-9.8,3-9.8,19.4c0,2.8,0.8,6.8,3.8,6.8C223.6,123.7,229.2,111.9,229.2,103.9z"/>
	<path class="st0" d="M287.2,97.5l1-3.2c7.6,0.6,21.2-2.6,21.2-2.6l-0.6,2.6l-1.2,8.4l0.2,0.2c4.2-7.8,8.8-11.2,11.6-11.2
		c0,0,2.8-0.6,5.2,0l-3.4,15c-10.6-3.2-14,3.8-14,3.8c-1.4,2.2-2.4,7.4-2.6,9.4l-2.2,13.4l-15.4,1.2l5.2-29.8c1-6.2,0.4-5.8-1.2-6.6
		L287.2,97.5z"/>
	<path class="st0" d="M371,80.7l1.2-4h4.2h29.4c14-0.4,18.4,4.6,18.4,12.6c0,7.4-6,12.2-17.8,13.2v0.2c9.6,1.2,16.8,6,16,14.2
		c-1.4,13.4-9.8,18-34,17.8l-23,0.6l0.6-4c4.4,0,5.8-2.8,5.8-2.8l6.4-41c0.6-3.2-0.4-5.2-3.2-6L371,80.7z M392.6,100.1h4.2
		c5,0,11.8-4,11.8-12.2c0-3.2-4.8-6.8-8.4-6.8h-4.4L392.6,100.1z M389.2,121.5c-1,7,2,7,4.2,7c5.4,0,12-5.2,12-13.2
		c0-4.6-5.6-10-10-10h-3.6L389.2,121.5z"/>
	<path class="st0" d="M468.4,100.9l-3.2,19c-0.4,3-0.2,4,1.8,3.8c1.8-0.4,2.8-0.4,2.8,0.6l0.2,3c0,0.6-0.6,1-1.8,1.4l-15.4,5.6
		c-3.2,0-4.4-2.2-4-4.4l1.4-7l-0.2-0.2c-2.6,5.6-8.8,11.6-13.4,11.6c-4.8,0-11.8-4.4-11.8-15c0-12.6,10.6-27.6,32.2-27.6
		c0,0,9.8,1.6,13.6,1L468.4,100.9z M454.2,103.9c0-3.2-1-6.2-3.8-6.2c-1.8,0-9.8,3-9.8,19.4c0,2.8,0.8,6.8,3.8,6.8
		C448.6,123.7,454.2,111.9,454.2,103.9z"/>
	<path class="st0" d="M508.2,107.1l-22.4,39.4c0,0-3.6,9.8-13.6,7.6l-1.6-9.6c0,0,11,5.6,17.8-11.8h-5.8l-5.4-27.6
		c-1.2-7.6-4.4-6.2-5.2-6.6l1-4.8c0,0,10.4,1.8,18.2-1l3.4,26.8l0.2,0.4l6.2-11.4c1-3,2-7,1.8-9c0,0-0.6-3-3.4-3.8l0.4-3.2
		c0,0,11.6,1.6,16.2-0.4C516,92.5,508.8,105.7,508.2,107.1z"/>
	<path class="st0" d="M283,123.9l-0.2,3.2c-0.4,1.4-3.2,2.8-4.6,3.6s-6,3.8-14.2,3.8c-9.8,0-15-7-15-17.6c0-12.6,10.4-25,24.6-25
		c6,0,13,2.6,13,10.4c0,7.6-15,15.2-23.2,15.8c-0.8,0,1.4,9,9.6,8.4C273,126.5,277.6,126.7,283,123.9z M270.6,110.1
		c5-2.6,3.2-12.2-2.8-9.6c-5.2,2.2-5,12.6-5,12.6S266,112.5,270.6,110.1z"/>
</g>
</svg>
